<svg xmlns="http://www.w3.org/2000/svg" viewBox="0 0 180 180"><rect width="180" height="180" fill="#0d9488" rx="40"/><g transform="translate(30, 30)"><rect width="100" height="60" x="10" y="52" fill="#fff" rx="12"/><path fill="#fff" d="M0 58 C0 54 4 50 8 46 L54 8 C58 4 62 4 66 8 L112 46 C116 50 120 54 120 58 C120 62 116 66 112 66 L8 66 C4 66 0 62 0 58Z"/><rect width="18" height="16" x="23" y="87" fill="#0d9488" rx="6"/><rect width="18" height="28" x="51" y="75" fill="#0d9488" rx="6"/><rect width="18" height="42" x="79" y="61" fill="#0d9488" rx="6"/></g></svg>