<svg xmlns="http://www.w3.org/2000/svg" viewBox="0 0 128 128"><g transform="translate(16, 16)"><rect width="80" height="52" x="8" y="40" class="house" rx="10"/><path d="M0 46 C0 42 4 38 8 34 L42 6 C46 2 50 2 54 6 L88 34 C92 38 96 42 96 46 C96 50 92 54 88 54 L8 54 C4 54 0 50 0 46Z" class="house"/><rect width="14" height="14" x="19" y="70" class="bar" rx="5"/><rect width="14" height="24" x="41" y="60" class="bar" rx="5"/><rect width="14" height="36" x="63" y="48" class="bar" rx="5"/></g><style>.house{fill:#0d9488}.bar{fill:#fff}@media (prefers-color-scheme:dark){.house{fill:#2dd4bf}.bar{fill:#0f172a}}</style></svg>