<svg xmlns="http://www.w3.org/2000/svg" viewBox="0 0 420 80"><g transform="translate(4, 4)"><rect width="48" height="36" x="8" y="32" fill="#2dd4bf" rx="6"/><path fill="#2dd4bf" d="M4 36 C4 34 6 32 8 30 L28 14 C30 12 34 12 36 14 L56 30 C58 32 60 34 60 36 C60 38 58 40 56 40 L8 40 C6 40 4 38 4 36Z"/><rect width="8" height="10" x="15" y="52" fill="#0f172a" rx="3"/><rect width="8" height="17" x="28" y="45" fill="#0f172a" rx="3"/><rect width="8" height="25" x="41" y="37" fill="#0f172a" rx="3"/></g><text x="80" y="50" dominant-baseline="middle" font-family="system-ui, -apple-system, sans-serif" font-size="48" font-weight="600"><tspan fill="#f8fafc">Mortgage</tspan><tspan fill="#2dd4bf">Lab</tspan></text></svg>