<svg xmlns="http://www.w3.org/2000/svg" viewBox="0 0 128 128">
  <!-- Rounded house icon - centered in viewBox -->
  <g transform="translate(16, 16)">
    <!-- House body with rounded corners -->
    <rect x="8" y="40" width="80" height="52" rx="10" class="house"/>
    <!-- Rounded roof -->
    <path d="M0 46 C0 42 4 38 8 34 L42 6 C46 2 50 2 54 6 L88 34 C92 38 96 42 96 46 C96 50 92 54 88 54 L8 54 C4 54 0 50 0 46Z" class="house"/>

    <!-- Rising bar chart - centered horizontally with bottom margin -->
    <!-- House bottom at y=92, bars end at y=84 (8px margin) -->
    <rect x="19" y="70" width="14" height="14" rx="5" class="bar"/>
    <rect x="41" y="60" width="14" height="24" rx="5" class="bar"/>
    <rect x="63" y="48" width="14" height="36" rx="5" class="bar"/>
  </g>

  <style>
    .house { fill: #0d9488; }
    .bar { fill: #ffffff; }
    @media (prefers-color-scheme: dark) {
      .house { fill: #2dd4bf; }
      .bar { fill: #0f172a; }
    }
  </style>
</svg>
